<svg id="visual" viewBox="0 0 900 600" width="900" height="600" xmlns="http://www.w3.org/2000/svg" xmlns:xlink="http://www.w3.org/1999/xlink" version="1.1"><g stroke-width="1" stroke-linejoin="bevel"><path d="M457 263L551.5 225L447 214Z" fill="#181136" stroke="#181136"></path><path d="M457 263L583.5 298L551.5 225Z" fill="#5f2898" stroke="#5f2898"></path><path d="M654 174L527.5 88L551.5 225Z" fill="#52268a" stroke="#52268a"></path><path d="M551.5 225L527.5 88L447 214Z" fill="#281951" stroke="#281951"></path><path d="M527.5 88L415 105L447 214Z" fill="#52268a" stroke="#52268a"></path><path d="M447 214L340.5 195L457 263Z" fill="#0a001c" stroke="#0a001c"></path><path d="M415 105L340.5 195L447 214Z" fill="#52268a" stroke="#52268a"></path><path d="M583.5 298L654 174L551.5 225Z" fill="#311d5f" stroke="#311d5f"></path><path d="M340.5 195L335.5 326L457 263Z" fill="#52268a" stroke="#52268a"></path><path d="M457 263L449 419L583.5 298Z" fill="#181136" stroke="#181136"></path><path d="M335.5 326L449 419L457 263Z" fill="#0a001c" stroke="#0a001c"></path><path d="M415 105L326.5 121L340.5 195Z" fill="#3b206d" stroke="#3b206d"></path><path d="M340.5 195L233 200L335.5 326Z" fill="#281951" stroke="#281951"></path><path d="M449 419L577.5 423L583.5 298Z" fill="#46237c" stroke="#46237c"></path><path d="M583.5 298L690 335L654 174Z" fill="#281951" stroke="#281951"></path><path d="M221 389L333.5 369L335.5 326Z" fill="#281951" stroke="#281951"></path><path d="M335.5 326L333.5 369L449 419Z" fill="#1f1543" stroke="#1f1543"></path><path d="M641 401L690 335L583.5 298Z" fill="#5f2898" stroke="#5f2898"></path><path d="M577.5 423L641 401L583.5 298Z" fill="#281951" stroke="#281951"></path><path d="M527.5 88L451 0L415 105Z" fill="#1f1543" stroke="#1f1543"></path><path d="M415 105L328.5 0L326.5 121Z" fill="#52268a" stroke="#52268a"></path><path d="M583.5 0L451 0L527.5 88Z" fill="#281951" stroke="#281951"></path><path d="M449 419L562.5 462L577.5 423Z" fill="#52268a" stroke="#52268a"></path><path d="M577.5 423L562.5 462L641 401Z" fill="#281951" stroke="#281951"></path><path d="M652 0L583.5 0L527.5 88Z" fill="#311d5f" stroke="#311d5f"></path><path d="M333.5 369L412 465L449 419Z" fill="#5f2898" stroke="#5f2898"></path><path d="M449 419L412 465L562.5 462Z" fill="#3b206d" stroke="#3b206d"></path><path d="M241 72L233 200L326.5 121Z" fill="#5f2898" stroke="#5f2898"></path><path d="M326.5 121L233 200L340.5 195Z" fill="#281951" stroke="#281951"></path><path d="M781.5 121L708 61L654 174Z" fill="#46237c" stroke="#46237c"></path><path d="M654 174L708 61L527.5 88Z" fill="#311d5f" stroke="#311d5f"></path><path d="M690 335L768.5 224L654 174Z" fill="#1f1543" stroke="#1f1543"></path><path d="M708 61L652 0L527.5 88Z" fill="#1f1543" stroke="#1f1543"></path><path d="M451 0L328.5 0L415 105Z" fill="#46237c" stroke="#46237c"></path><path d="M233 200L215 297L335.5 326Z" fill="#6d29a6" stroke="#6d29a6"></path><path d="M333.5 369L350.5 523L412 465Z" fill="#181136" stroke="#181136"></path><path d="M328.5 0L241 72L326.5 121Z" fill="#181136" stroke="#181136"></path><path d="M233 200L132.5 207L215 297Z" fill="#181136" stroke="#181136"></path><path d="M768.5 224L781.5 121L654 174Z" fill="#311d5f" stroke="#311d5f"></path><path d="M708 61L824.5 0L652 0Z" fill="#1f1543" stroke="#1f1543"></path><path d="M653 600L698 469L562.5 462Z" fill="#0a001c" stroke="#0a001c"></path><path d="M562.5 462L698 469L641 401Z" fill="#46237c" stroke="#46237c"></path><path d="M641 401L776.5 395L690 335Z" fill="#52268a" stroke="#52268a"></path><path d="M690 335L807.5 319L768.5 224Z" fill="#3b206d" stroke="#3b206d"></path><path d="M215 297L221 389L335.5 326Z" fill="#0a001c" stroke="#0a001c"></path><path d="M776.5 395L807.5 319L690 335Z" fill="#6d29a6" stroke="#6d29a6"></path><path d="M768.5 224L900 169L781.5 121Z" fill="#3b206d" stroke="#3b206d"></path><path d="M698 469L776.5 395L641 401Z" fill="#181136" stroke="#181136"></path><path d="M249 499L350.5 523L333.5 369Z" fill="#5f2898" stroke="#5f2898"></path><path d="M412 465L543.5 600L562.5 462Z" fill="#3b206d" stroke="#3b206d"></path><path d="M328.5 0L234 0L241 72Z" fill="#3b206d" stroke="#3b206d"></path><path d="M241 72L132.5 207L233 200Z" fill="#311d5f" stroke="#311d5f"></path><path d="M96.5 92L132.5 207L241 72Z" fill="#281951" stroke="#281951"></path><path d="M215 297L123.5 391L221 389Z" fill="#52268a" stroke="#52268a"></path><path d="M221 389L249 499L333.5 369Z" fill="#0a001c" stroke="#0a001c"></path><path d="M127.5 529L249 499L221 389Z" fill="#120a28" stroke="#120a28"></path><path d="M413 600L543.5 600L412 465Z" fill="#181136" stroke="#181136"></path><path d="M413 600L412 465L350.5 523Z" fill="#281951" stroke="#281951"></path><path d="M348.5 600L413 600L350.5 523Z" fill="#6d29a6" stroke="#6d29a6"></path><path d="M900 69L824.5 0L781.5 121Z" fill="#0a001c" stroke="#0a001c"></path><path d="M781.5 121L824.5 0L708 61Z" fill="#1f1543" stroke="#1f1543"></path><path d="M900 379L900 310L807.5 319Z" fill="#281951" stroke="#281951"></path><path d="M900 310L900 169L768.5 224Z" fill="#1f1543" stroke="#1f1543"></path><path d="M698 469L822.5 462L776.5 395Z" fill="#3b206d" stroke="#3b206d"></path><path d="M782.5 600L822.5 462L698 469Z" fill="#181136" stroke="#181136"></path><path d="M249 499L348.5 600L350.5 523Z" fill="#311d5f" stroke="#311d5f"></path><path d="M543.5 600L653 600L562.5 462Z" fill="#3b206d" stroke="#3b206d"></path><path d="M900 310L768.5 224L807.5 319Z" fill="#181136" stroke="#181136"></path><path d="M79.5 300L123.5 391L215 297Z" fill="#1f1543" stroke="#1f1543"></path><path d="M249 499L223 600L348.5 600Z" fill="#6d29a6" stroke="#6d29a6"></path><path d="M900 379L807.5 319L776.5 395Z" fill="#181136" stroke="#181136"></path><path d="M100.5 0L96.5 92L241 72Z" fill="#281951" stroke="#281951"></path><path d="M132.5 207L79.5 300L215 297Z" fill="#120a28" stroke="#120a28"></path><path d="M0 261L79.5 300L132.5 207Z" fill="#120a28" stroke="#120a28"></path><path d="M822.5 462L900 379L776.5 395Z" fill="#1f1543" stroke="#1f1543"></path><path d="M900 169L900 69L781.5 121Z" fill="#311d5f" stroke="#311d5f"></path><path d="M234 0L100.5 0L241 72Z" fill="#5f2898" stroke="#5f2898"></path><path d="M0 185L0 261L132.5 207Z" fill="#0a001c" stroke="#0a001c"></path><path d="M127.5 529L221 389L123.5 391Z" fill="#120a28" stroke="#120a28"></path><path d="M127.5 529L223 600L249 499Z" fill="#181136" stroke="#181136"></path><path d="M900 69L900 0L824.5 0Z" fill="#5f2898" stroke="#5f2898"></path><path d="M900 600L900 462L822.5 462Z" fill="#120a28" stroke="#120a28"></path><path d="M822.5 462L900 462L900 379Z" fill="#6d29a6" stroke="#6d29a6"></path><path d="M653 600L782.5 600L698 469Z" fill="#0a001c" stroke="#0a001c"></path><path d="M0 471L127.5 529L123.5 391Z" fill="#52268a" stroke="#52268a"></path><path d="M0 185L132.5 207L96.5 92Z" fill="#52268a" stroke="#52268a"></path><path d="M79.5 300L0 432L123.5 391Z" fill="#46237c" stroke="#46237c"></path><path d="M0 104L0 185L96.5 92Z" fill="#0a001c" stroke="#0a001c"></path><path d="M0 0L0 104L96.5 92Z" fill="#5f2898" stroke="#5f2898"></path><path d="M0 261L0 432L79.5 300Z" fill="#181136" stroke="#181136"></path><path d="M782.5 600L900 600L822.5 462Z" fill="#52268a" stroke="#52268a"></path><path d="M100.5 0L0 0L96.5 92Z" fill="#181136" stroke="#181136"></path><path d="M0 471L89.5 600L127.5 529Z" fill="#1f1543" stroke="#1f1543"></path><path d="M127.5 529L89.5 600L223 600Z" fill="#0a001c" stroke="#0a001c"></path><path d="M0 432L0 471L123.5 391Z" fill="#3b206d" stroke="#3b206d"></path><path d="M0 471L0 600L89.5 600Z" fill="#281951" stroke="#281951"></path></g></svg>